# AST/ASF file generated using VICON BodyLanguage
# -----------------------------------------------
:version 1.10
:name VICON
:units
  mass 1.0
  length 0.45
  angle deg
:documentation
   .ast/.asf automatically generated from VICON data using
   VICON BodyBuilder and BodyLanguage model FoxedUp or BRILLIANT.MOD
:root
   order TX TY TZ RX RY RZ
   axis XYZ
   position 0 0 0  
   orientation 0 0 0 
:bonedata
  begin
     id 1 
     name lhipjoint
     direction 0.635376 -0.686425 0.353719 
     length 2.47244 
     axis 0 0 0  XYZ
  end
  begin
     id 2 
     name lfemur
     direction 0.34202 -0.939693 0  
     length 7.25268  
     axis 0 0 20  XYZ
    dof rx ry rz
    limits (-160.0 20.0)
           (-70.0 70.0)
           (-60.0 70.0)
  end
  begin
     id 3 
     name ltibia
     direction 0.34202 -0.939693 0   
     length 7.6767   
     axis 0 0 20   XYZ
    dof rx
    limits (-10.0 170.0)
  end
  begin
     id 4 
     name lfoot
     direction 0.0803374 -0.220725 0.972022   
     length 2.22945   
     axis -90 7.62852e-016 20   XYZ
    dof rx rz
    limits (-45.0 90.0)
           (-70.0 20.0)
  end
  begin
     id 5 
     name ltoes
     direction 1.53579e-011 -4.21994e-011 1   
     length 1.11848   
     axis -90 7.62852e-016 20   XYZ
    dof rx
    limits (-90.0 20.0)
  end
  begin
     id 6 
     name rhipjoint
     direction -0.664428 -0.664335 0.342336   
     length 2.55466  
     axis 0 0 0  XYZ 
  end
  begin
     id 7 
     name rfemur
     direction -0.34202 -0.939693 0   
     length 6.83172   
     axis 0 0 -20   XYZ
    dof rx ry rz
    limits (-160.0 20.0)
           (-70.0 70.0)
           (-70.0 60.0)
  end
  begin
     id 8 
     name rtibia
     direction -0.34202 -0.939693 0   
     length 7.62692   
     axis 0 0 -20   XYZ
    dof rx
    limits (-10.0 170.0)
 end
 begin
     id 9 
     name rfoot
     direction -0.0949276 -0.260811 0.960711   
     length 2.19684  
     axis -90 -7.62852e-016 -20   XYZ
    dof rx rz
    limits (-45.0 90.0)
           (-20.0 70.0)
  end
  begin
     id 10 
     name rtoes
     direction -1.53543e-011 -4.2183e-011 1   
     length 1.09848   
     axis -90 -7.62852e-016 -20   XYZ
    dof rx
    limits (-90.0 20.0)
  end
  begin
     id 11 
     name lowerback
     direction 0.0118782 0.999815 -0.0151555   
     length 2.15772   
     axis 0 0 0   XYZ
    dof rx ry rz
    limits (-20.0 45.0)
           (-30.0 30.0)
           (-30.0 30.0)
  end
  begin
     id 12 
     name upperback
     direction 0.00130825 0.999065 0.0432113   
     length 2.14863   
     axis 0 0 0   XYZ
    dof rx ry rz
    limits (-20.0 45.0)
           (-30.0 30.0)
           (-30.0 30.0)
  end
  begin
     id 13 
     name thorax
     direction -0.00347005 0.998773 0.0494011   
     length 2.14936   
     axis 0 0 0   XYZ
    dof rx ry rz
    limits (-20.0 45.0)
           (-30.0 30.0)
           (-30.0 30.0)
  end
  begin
     id 14 
     name lowerneck
     direction -0.0262159 0.99424 0.103921   
     length 1.69373   
     axis 0 0 0   XYZ
    dof rx ry rz
    limits (-20.0 45.0)
           (-30.0 30.0)
           (-30.0 30.0)
  end
  begin
     id 15 
     name upperneck
     direction 0.0353511 0.977394 -0.20845   
     length 1.70857   
     axis 0 0 0   XYZ
    dof rx ry rz
    limits (-20.0 45.0)
           (-30.0 30.0)
           (-30.0 30.0)
  end
  begin
     id 16
     name head
     direction 0.0139214 0.996594 -0.0812836  
     length 1.72777  
     axis 0 0 0   XYZ
    dof rx ry rz
    limits (-20.0 45.0)
           (-30.0 30.0)
           (-30.0 30.0)
  end
  begin
     id 17 
     name lclavicle
     direction 0.841247 0.537205 -0.0609508  
     length 3.55371  
     axis 0 0 0   XYZ
    dof ry rz
    limits (-20.0 10.0)
           (0.0 20.0)
  end
  begin
     id 18 
     name lhumerus
     direction 1 -4.48964e-011 1.60116e-018   
     length 4.91377   
     axis -180 -30 -90   XYZ
    dof rx ry rz
    limits (-60.0 90.0)
           (-90.0 90.0)
           (-90.0 90.0)
  end
  begin
     id 19
     name lradius
     direction 1 -4.48989e-011 -8.93847e-027   
     length 3.00291   
     axis -180 -30 -90   XYZ
    dof rx
    limits (-10.0 170.0)
  end
  begin
     id 20
     name lwrist
     direction 1 -4.48932e-011 -7.31504e-027   
     length 1.50145   
     axis 5.74121e-015 90 90   XYZ
    dof ry
    limits (-180.0 0.0)
 end
  begin
     id 21 
     name lhand
     direction 1 -4.48971e-011 -1.46301e-026   
     length 0.450922   
     axis 9.33524e-015 90 90   XYZ
    dof rx rz
    limits (-90.0 90.0)
           (-45.0 45.0)
  end
  begin
     id 22 
     name lfingers
     direction 1 -4.49039e-011 -2.92602e-026   
     length 0.363545   
     axis 1.86705e-014 90 90   XYZ
    dof rx
    limits (0.0 90.0)
  end
  begin
     id 23
     name lthumb
     direction 0.707107 -6.34941e-011 0.707107   
     length 0.52198   
     axis -90 45 2.85299e-015   XYZ
    dof rx rz
    limits (-45.0 45.0)
           (-45.0 45.0)
  end
  begin
     id 24 
     name rclavicle
     direction -0.825079 0.56158 -0.0622297   
     length 3.39909  
     axis 0 0 0   XYZ 
    dof ry rz
    limits (-10.0 20.0)
           (-20.0 0.0)
  end
  begin
     id 25 
     name rhumerus
     direction -1 -4.48965e-011 1.61691e-027  
     length 4.86725   
     axis -180 30 90   XYZ
    dof rx ry rz
    limits (-90.0 60.0)
           (-90.0 90.0)
           (-90.0 90.0)
  end
  begin
     id 26 
     name rradius
     direction -1 -4.48964e-011 -2.25776e-027   
     length 3.17144   
     axis -180 30 90   XYZ
    dof rx
    limits (-10.0 170.0)
  end
  begin
     id 27 
     name rwrist
     direction -1 -4.48961e-011 -7.31504e-027   
     length 1.58572   
     axis 5.74121e-015 -90 -90   XYZ
    dof ry
    limits (-180.0 0.0)
  end
  begin
     id 28
     name rhand
     direction -1 -4.49013e-011 -1.46301e-026   
     length 0.419368   
     axis 9.33524e-015 -90 -90   XYZ
    dof rx rz
    limits (-90.0 90.0)
           (-45.0 45.0)
  end
  begin
     id 29
     name rfingers
     direction -1 -4.489e-011 -2.92602e-026   
     length 0.338105   
     axis 1.86705e-014 -90 -90   XYZ
    dof rx
    limits (0.0 90.0)
  end
  begin
     id 30
     name rthumb
     direction -0.707107 -6.35022e-011 0.707107   
     length 0.485453   
     axis -90 -45 -2.85299e-015   XYZ
    dof rx rz
    limits (-45.0 45.0)
           (-45.0 45.0)
  end
:hierarchy
  begin
    root lhipjoint rhipjoint lowerback
    lhipjoint lfemur
    lfemur ltibia
    ltibia lfoot
    lfoot ltoes
    rhipjoint rfemur
    rfemur rtibia
    rtibia rfoot
    rfoot rtoes
    lowerback upperback
    upperback thorax
    thorax lowerneck lclavicle rclavicle
    lowerneck upperneck
    upperneck head
    lclavicle lhumerus
    lhumerus lradius
    lradius lwrist
    lwrist lhand lthumb
    lhand lfingers
    rclavicle rhumerus
    rhumerus rradius
    rradius rwrist
    rwrist rhand rthumb
    rhand rfingers
  end

#!OML:ASF H:\Swim 2\Project 1\Capture day 1\Session 1\male.ASF
:FULLY-SPECIFIED
:DEGREES
926
root 1.42165 13.0407 10.2391 89.403 -2.70442 -1.79762
lowerback -20.3358 0.257026 -9.4885
upperback -7.18231 1.93022 7.52421
thorax 2.81274 1.24434 14.4163
lowerneck -23.5809 -3.42403 -10.3588
upperneck 47.2776 0.623799 -1.18339
head 26.2941 -1.83552 1.55365
rclavicle -2.38542e-014 -1.11319e-014
rhumerus 86.409 6.57578 -29.9656
rradius 24.8958
rwrist -27.9852
rhand -24.1335 -5.19773
rfingers 7.12502
rthumb 2.3484 -35.1646
lclavicle -2.38542e-014 -1.11319e-014
lhumerus 86.3359 -9.91563 73.6025
lradius 16.0649
lwrist 11.6702
lhand -34.7506 -5.67087
lfingers 7.12502
lthumb -7.90407 24.1614
rfemur -54.3728 8.90481 14.1148
rtibia 37.5623
rfoot 22.7837 1.6443
rtoes 6.88161
lfemur -51.4798 -6.29044 -21.1373
ltibia 42.4533
lfoot 15.1519 10.8883
ltoes 3.94879
927
root 1.41804 13.0167 10.2018 89.0264 -2.72389 -1.83665
lowerback -20.073 0.280013 -9.45403
upperback -7.14148 1.93438 7.50843
thorax 2.72418 1.24888 14.3595
lowerneck -23.6352 -3.41652 -10.3701
upperneck 47.1939 0.625661 -1.14702
head 26.2164 -1.83163 1.57712
rclavicle 4.77083e-015 -4.37326e-014
rhumerus 86.4773 6.54823 -30.2095
rradius 24.7984
rwrist -27.7292
rhand -24.1662 -5.04555
rfingers 7.12502
rthumb 2.31688 -35.0127
lclavicle 4.77083e-015 -4.37326e-014
lhumerus 86.382 -9.8417 73.0989
lradius 16.2798
lwrist 12.0209
lhand -34.7668 -5.66759
lfingers 7.12502
lthumb -7.91973 24.1641
rfemur -54.7655 9.02256 13.9911
rtibia 37.7045
rfoot 22.7985 1.71997
rtoes 7.15916
lfemur -51.698 -6.15406 -21.1914
ltibia 42.6054
lfoot 15.246 10.4881
ltoes 4.2649
928
root 1.41506 12.9926 10.1644 88.6473 -2.73579 -1.87206
lowerback -19.8071 0.306934 -9.40889
upperback -7.09834 1.94152 7.4995
thorax 2.63555 1.25473 14.305
lowerneck -23.6844 -3.40378 -10.3906
upperneck 47.0968 0.642976 -1.11715
head 26.1196 -1.8241 1.6026
rclavicle -1.90833e-014 -4.37326e-014
rhumerus 86.5639 6.51462 -30.3425
rradius 24.7017
rwrist -27.5735
rhand -24.218 -4.80798
rfingers 7.12502
rthumb 2.26681 -34.7757
lclavicle -1.90833e-014 -4.37326e-014
lhumerus 86.4179 -9.76242 72.6375
lradius 16.496
lwrist 12.3518
lhand -34.831 -5.66963
lfingers 7.12502
lthumb -7.98163 24.1597
rfemur -55.1654 9.15544 13.8517
rtibia 37.8266
rfoot 22.8764 1.79143
rtoes 7.68583
lfemur -51.9176 -6.0581 -21.2152
ltibia 42.752
lfoot 15.313 10.137
ltoes 4.56977
929
root 1.41207 12.9691 10.1273 88.2719 -2.75434 -1.93152
lowerback -19.5416 0.345719 -9.36911
upperback -7.05212 1.96611 7.49549
thorax 2.54414 1.26988 14.2637
lowerneck -23.7281 -3.3913 -10.4254
upperneck 46.9903 0.667122 -1.08866
head 26.0096 -1.8163 1.63181
rclavicle -3.97569e-014 -2.22639e-014
rhumerus 86.6614 6.47451 -30.3799
rradius 24.6127
rwrist -27.5134
rhand -24.2695 -4.50777
rfingers 7.12502
rthumb 2.21712 -34.476
lclavicle -3.97569e-014 -2.22639e-014
lhumerus 86.4453 -9.68396 72.1945
lradius 16.7281
lwrist 12.7197
lhand -34.954 -5.6718
lfingers 7.12502
lthumb -8.10034 24.153
rfemur -55.5879 9.33264 13.6735
rtibia 37.9433
rfoot 23.1431 1.97221
rtoes 8.75344
lfemur -52.146 -5.98815 -21.21
ltibia 42.8963
lfoot 15.361 9.87445
ltoes 4.95398
930
root 1.40832 12.9472 10.0904 87.911 -2.77612 -2.04252
lowerback -19.2823 0.402947 -9.33557
upperback -7.0035 2.01763 7.50091
thorax 2.44911 1.2995 14.2436
lowerneck -23.7749 -3.3786 -10.4645
upperneck 46.8792 0.699582 -1.07025
head 25.8967 -1.80717 1.65792
rclavicle -4.77083e-015 -4.92986e-014
rhumerus 86.7721 6.42452 -30.3378
rradius 24.542
rwrist -27.54
rhand -24.3498 -4.19587
rfingers 7.12502
rthumb 2.13956 -34.1649
lclavicle -4.77083e-015 -4.92986e-014
lhumerus 86.468 -9.60501 71.7881
lradius 16.975
lwrist 13.1359
lhand -35.0928 -5.6725
lfingers 7.12502
lthumb -8.23429 24.147
rfemur -56.038 9.5817 13.4557
rtibia 38.0891
rfoot 23.6489 2.36837
rtoes 9.83045
lfemur -52.4001 -5.91659 -21.1652
ltibia 43.0476
lfoot 15.4032 9.70553
ltoes 5.37121
